# xmcd
#
# Track frame offsets:
#	182
#	19002
#	32970
#	46877
#	62140
#	77982
#	92997
#	117300
#	136110
#	155655
#	169345
#	184447
#	198990
#	217565
#
# Disc length: 3104 seconds
#
# Revision: 14
# Processed by: cddbd v1.5.2PL0 Copyright (c) Steve Scherf et al.
# Submitted via: EasyCDDAExtractor 15.3.0.1
#
DISCID=c20c1e0e
DTITLE=Luis Miguel - Romances
DYEAR=1997
DGENRE=Latin
TTITLE0=Voy A Apagar La Luz, Contigo Aprendi
TTITLE1=Sabor A Mi
TTITLE2=Por Debajo De La Mesa
TTITLE3=La Gloria Eres Tu
TTITLE4=Amanecer
TTITLE5=Encadenados
TTITLE6=Besame Mucho
TTITLE7=Contigo (Estar Contigo)
TTITLE8=Noche De Ronda
TTITLE9=El Reloj
TTITLE10=Jurame
TTITLE11=De Quererte Asi (De T'avoir Aimee)
TTITLE12=Uno
TTITLE13=Mañana De Carnaval (Manha Do Carnival)
EXTD=YEAR: 1997
EXTT0=
EXTT1=
EXTT2=
EXTT3=
EXTT4=
EXTT5=
EXTT6=
EXTT7=
EXTT8=
EXTT9=
EXTT10=
EXTT11=
EXTT12=
EXTT13=
PLAYORDER=
